<?xml version="1.0" encoding="utf-8"?>
<!-- Generator: Adobe Illustrator 23.0.0, SVG Export Plug-In . SVG Version: 6.00 Build 0)  -->
<svg version="1.1" xmlns="http://www.w3.org/2000/svg" xmlns:xlink="http://www.w3.org/1999/xlink" x="0px" y="0px"
	 viewBox="0 0 155.3 53.5" enable-background="new 0 0 155.3 53.5" xml:space="preserve">
<g id="Layer_10">
	<rect x="0" fill="#1E76BD" width="155.3" height="53.5"/>
	<g>
		<g>
			<polygon fill="#FFFFFF" points="13.9,12.4 15.7,19.7 15.8,19.7 18.1,12.4 20.4,12.4 22.7,19.9 24.6,12.4 27.1,12.4 23.8,23.6 
				21.6,23.6 19.2,15.9 16.7,23.6 14.6,23.6 11.3,12.4 			"/>
			<polygon fill="#FFFFFF" points="35.9,12.4 35.9,14.7 30.8,14.7 30.8,16.8 35.7,16.8 35.7,19.1 30.8,19.1 30.8,21.4 36.2,21.4 
				36.2,23.6 28.3,23.6 28.3,12.4 			"/>
			<path fill="#FFFFFF" d="M42.9,21.5c0.8,0,1.6-0.3,1.6-1.3c0-1-1.2-1.2-2-1.2c-1.9,0-1.9,0-1.9,0c0,2.5,0,2.5,0,2.5H42.9z
				 M42.5,16.9c0.8,0,1.5-0.3,1.5-1.2c0-0.9-0.9-1.2-1.6-1.2c-1.7,0-1.7,0-1.7,0c0,2.4,0,2.4,0,2.4H42.5z M42.5,12.4
				c2,0,4,0.6,4,2.9c0,1.3-0.8,2.2-1.9,2.5l0,0c1.3,0.2,2.4,1.1,2.4,2.8c0,2.3-2.2,3.1-4.2,3.1c-4.6,0-4.6,0-4.6,0
				c0-11.2,0-11.2,0-11.2H42.5z"/>
			<polygon fill="#FFFFFF" points="52.2,12.4 54.8,19.8 57.5,12.4 61.2,12.4 61.2,23.6 58.7,23.6 58.7,15 55.7,23.6 53.8,23.6 
				51,15 51,23.6 48.4,23.6 48.4,12.4 			"/>
			<polygon fill="#FFFFFF" points="71.1,12.4 71.1,14.7 66,14.7 66,16.8 70.9,16.8 70.9,19.1 66,19.1 66,21.4 71.4,21.4 71.4,23.6 
				63.5,23.6 63.5,12.4 			"/>
			<polygon fill="#FFFFFF" points="81.2,12.4 81.2,14.6 78,14.6 78,23.6 75.6,23.6 75.6,14.6 72.4,14.6 72.4,12.4 			"/>
			<polygon fill="#FFFFFF" points="85,12.4 85,16.6 89.8,16.6 89.8,12.4 92.2,12.4 92.2,23.6 89.8,23.6 89.8,18.8 85,18.8 85,23.6 
				82.5,23.6 82.5,12.4 			"/>
			<path fill="#FFFFFF" d="M99.9,21.6c2.1,0,3.5-1.4,3.5-3.6c0-2.1-1.4-3.5-3.5-3.5c-2.1,0-3.4,1.4-3.4,3.5
				C96.5,20.2,97.8,21.6,99.9,21.6z M106,18c0,3.6-2.5,5.9-6.1,5.9c-3.5,0-6-2.3-6-5.9c0-3.5,2.5-5.8,6-5.8
				C103.6,12.2,106,14.5,106,18z"/>
			<path fill="#FFFFFF" d="M111.6,21.4c2.2,0,3.8-1,3.8-3.4c0-2.3-1.8-3.3-3.7-3.3c-1.5,0-1.5,0-1.5,0c0,6.7,0,6.7,0,6.7H111.6z
				 M111.5,12.4c3.6,0,6.6,1.7,6.6,5.7c0,3.5-2.9,5.5-6.3,5.5c-4.1,0-4.1,0-4.1,0c0-11.2,0-11.2,0-11.2H111.5z"/>
			<path fill="#FFFFFF" d="M127,13.4c-1.8,1.8-1.8,1.8-1.8,1.8c-0.3-0.4-1.1-0.7-1.8-0.7c-0.7,0-1.6,0.2-1.6,1.1
				c0,1,1.2,1.2,2.4,1.5c1.3,0.4,2.7,1.1,2.7,3.1c0,2.6-2.1,3.7-4.3,3.7c-1.4,0-2.7-0.4-3.9-1.4c1.8-1.9,1.8-1.9,1.8-1.9
				c0.6,0.7,1.3,1,2.2,1c0.7,0,1.8-0.2,1.8-1.1c0-1-1.2-1.3-2.5-1.7c-1.3-0.4-2.8-1.1-2.8-3.1c0-2.4,2.1-3.6,4.3-3.6
				C124.8,12.2,126,12.5,127,13.4z"/>
			<path fill="#FFFFFF" d="M130.5,23c0,0.4-0.3,0.8-0.8,0.8S129,23.4,129,23c0-0.4,0.3-0.8,0.8-0.8S130.5,22.5,130.5,23z"/>
			<path fill="#FFFFFF" d="M133.3,16.4c0.9,0,0.9,0,0.9,0c0,7.3,0,7.3,0,7.3c-0.9,0-0.9,0-0.9,0V16.4z M134.5,13.5
				c0,0.3-0.3,0.7-0.8,0.7c-0.4,0-0.7-0.3-0.7-0.7c0-0.4,0.2-0.8,0.7-0.8C134.1,12.7,134.5,13.1,134.5,13.5z"/>
			<path fill="#FFFFFF" d="M140.3,23c1.8,0,2.9-1.2,2.9-3c0-1.8-1.1-3-2.9-3c-1.6,0-2.9,1.2-2.9,3C137.4,21.8,138.5,23,140.3,23z
				 M144.1,20c0,2.2-1.5,3.8-3.9,3.8c-2.2,0-3.9-1.7-3.9-3.8c0-2.2,1.6-3.9,3.9-3.9C142.5,16.1,144.1,17.8,144.1,20z"/>
			<rect x="12.8" y="30" fill="#FFFFFF" width="1" height="11.2"/>
			<path fill="#FFFFFF" d="M22.9,36.9c0,4.3,0,4.3,0,4.3c-1,0-1,0-1,0c0-4.2,0-4.2,0-4.2c0-1.7-0.5-2.4-1.8-2.4
				c-1.5,0-2.5,1.1-2.5,3c0,3.6,0,3.6,0,3.6c-1,0-1,0-1,0c0-5.3,0-5.3,0-5.3c0-0.2-0.1-1.9-0.1-2c1,0,1,0,1,0c0,0.4,0,1.1,0,1.3
				c0.1,0,0.1,0,0.1,0c0.4-1,1.4-1.5,2.5-1.5C21.9,33.7,22.9,34.7,22.9,36.9z"/>
			<path fill="#FFFFFF" d="M26,31.9c1,0,1,0,1,0c0,2.1,0,2.1,0,2.1c2.1,0,2.1,0,2.1,0c0,0.9,0,0.9,0,0.9c-2.1,0-2.1,0-2.1,0
				c0,4.7,0,4.7,0,4.7c0,0.7,0.3,1,1,1c0.3,0,0.7-0.1,1.1-0.2c0,0.9,0,0.9,0,0.9c-0.4,0.1-0.9,0.2-1.2,0.2c-1.2,0-1.9-0.8-1.9-1.9
				c0-4.7,0-4.7,0-4.7c-1.6,0-1.6,0-1.6,0c0-0.9,0-0.9,0-0.9c1.6,0,1.6,0,1.6,0V31.9z"/>
			<path fill="#FFFFFF" d="M36.4,37c0-1.4-1.1-2.4-2.5-2.4c-1.4,0-2.5,1.1-2.6,2.4H36.4z M37.4,37.3c0,0.6,0,0.6,0,0.6
				c-6.2,0-6.2,0-6.2,0c0.1,1.5,1,2.8,2.7,2.8c1,0,2-0.4,2.4-1.2c0.8,0.5,0.8,0.5,0.8,0.5c-0.8,1.1-1.9,1.5-3.2,1.5
				c-2.2,0-3.7-1.5-3.7-3.8c0-2.1,1.5-3.8,3.6-3.8C35.9,33.7,37.4,35.1,37.4,37.3z"/>
			<path fill="#FFFFFF" d="M43.1,40.5c1.6,0,2.9-1.3,2.9-3c0-1.5-1.2-2.9-2.9-2.9c-1.5,0-2.9,1.3-2.9,2.9
				C40.2,39,41.4,40.5,43.1,40.5z M45.9,35.2L45.9,35.2c0-1.2,0-1.2,0-1.2c1,0,1,0,1,0c0,6.8,0,6.8,0,6.8c0,2.9-1.4,4.3-4,4.3
				c-1.3,0-2.8-0.6-3.6-1.5c0.8-0.7,0.8-0.7,0.8-0.7c0.7,0.9,1.8,1.3,2.9,1.3c2,0,3-1.1,3-3.3c0-1.1,0-1.1,0-1.1l0,0
				c-0.5,0.9-1.5,1.4-2.8,1.4c-2.2,0-4-1.7-4-3.7c0-2.1,1.9-3.7,4-3.7C44.4,33.7,45.4,34.3,45.9,35.2z"/>
			<path fill="#FFFFFF" d="M53.1,33.9C53,34.7,53,34.7,53,34.7c-0.1,0-0.3,0-0.4,0c-1.5,0-2.3,1-2.3,2.5c0,4,0,4,0,4c-1,0-1,0-1,0
				c0-5.3,0-5.3,0-5.3c0-0.2-0.1-1.9-0.1-2c1,0,1,0,1,0c0,0.5,0,1.1,0,1.3c0.7-1,1.4-1.5,2.4-1.5C52.6,33.7,52.8,33.7,53.1,33.9z"/>
			<path fill="#FFFFFF" d="M56.8,40.6c1.6,0,2.5-0.9,2.5-2.4c0-0.5,0-0.5,0-0.5c-1.2,0-1.2,0-1.2,0c-1.5,0-3,0.4-3,1.7
				C55.2,40,55.8,40.6,56.8,40.6z M60.2,36.4c0,2.1,0,2.1,0,2.1c0,1.2,0,2.1,0.1,2.8c-0.9,0-0.9,0-0.9,0c-0.1-0.3-0.1-0.7-0.1-1.1
				l0,0c-0.6,0.9-1.4,1.3-2.5,1.3c-1.7,0-2.6-0.9-2.6-2.2c0-1.7,1.4-2.4,4-2.4c1.2,0,1.2,0,1.2,0c0-0.4,0-0.4,0-0.4
				c0-1.2-0.8-1.8-2.1-1.8c-0.9,0-1.5,0.2-2.2,0.8c-0.5-0.7-0.5-0.7-0.5-0.7c0.7-0.7,1.8-1,2.8-1C59.2,33.7,60.2,34.7,60.2,36.4z"/>
			<path fill="#FFFFFF" d="M63.3,31.9c0.9,0,0.9,0,0.9,0c0,2.1,0,2.1,0,2.1c2.1,0,2.1,0,2.1,0c0,0.9,0,0.9,0,0.9c-2.1,0-2.1,0-2.1,0
				c0,4.7,0,4.7,0,4.7c0,0.7,0.4,1,1,1c0.4,0,0.8-0.1,1.1-0.2c0.1,0.9,0.1,0.9,0.1,0.9c-0.4,0.1-1,0.2-1.2,0.2
				c-1.3,0-1.9-0.8-1.9-1.9c0-4.7,0-4.7,0-4.7c-1.6,0-1.6,0-1.6,0c0-0.9,0-0.9,0-0.9c1.6,0,1.6,0,1.6,0V31.9z"/>
			<path fill="#FFFFFF" d="M68.1,34c1,0,1,0,1,0c0,7.3,0,7.3,0,7.3c-1,0-1,0-1,0V34z M69.3,31.1c0,0.3-0.3,0.7-0.8,0.7
				c-0.3,0-0.7-0.3-0.7-0.7c0-0.4,0.3-0.8,0.7-0.8C69,30.3,69.3,30.7,69.3,31.1z"/>
			<path fill="#FFFFFF" d="M75.2,40.6c1.8,0,3-1.2,3-3c0-1.8-1.2-3-3-3c-1.7,0-2.9,1.2-2.9,3C72.3,39.4,73.5,40.6,75.2,40.6z
				 M79,37.6c0,2.2-1.5,3.8-3.9,3.8c-2.2,0-3.9-1.7-3.9-3.8c0-2.2,1.6-3.8,3.9-3.8C77.5,33.7,79,35.4,79,37.6z"/>
			<path fill="#FFFFFF" d="M87.5,36.9c0,4.3,0,4.3,0,4.3c-1,0-1,0-1,0c0-4.2,0-4.2,0-4.2c0-1.7-0.6-2.4-1.9-2.4
				c-1.5,0-2.5,1.1-2.5,3c0,3.6,0,3.6,0,3.6c-0.9,0-0.9,0-0.9,0c0-5.3,0-5.3,0-5.3c0-0.2-0.1-1.9-0.1-2c1,0,1,0,1,0
				c0,0.4,0,1.1,0,1.3c0.1,0,0.1,0,0.1,0c0.4-1,1.4-1.5,2.4-1.5C86.5,33.7,87.5,34.7,87.5,36.9z"/>
		</g>
	</g>
</g>
<g id="Layer_2">
</g>
<g id="Layer_3">
</g>
</svg>
